<?xml version="1.0" encoding="UTF-8"?>
<svg version="1.1" xmlns="http://www.w3.org/2000/svg" width="500" height="500">
<path d="M0 0 C10.27070272 9.34052587 13.89849634 22.24301963 15.13671875 35.6953125 C15.68435042 51.24098568 11.29590561 66.61273102 0.5703125 78.1328125 C-9.55664018 87.64704199 -21.49891199 89.89436299 -34.91015625 89.56640625 C-43.6390554 89.0988213 -51.22542402 86.38538025 -57.5546875 80.25390625 C-60.96654227 76.06290196 -62.98988022 71.58295163 -63.4296875 66.1953125 C-63.3471875 65.5559375 -63.2646875 64.9165625 -63.1796875 64.2578125 C-62.1896875 63.9278125 -61.1996875 63.5978125 -60.1796875 63.2578125 C-59.96054688 63.77730469 -59.74140625 64.29679687 -59.515625 64.83203125 C-56.51539725 71.43009309 -52.83396066 75.4401132 -45.9296875 78.0703125 C-36.72324754 80.74910941 -28.73377314 79.4427344 -20.1796875 75.2578125 C-12.17671356 70.62773946 -8.63076463 62.02070171 -6.03125 53.48828125 C-4.94111075 48.81419107 -4.83520815 44.2285096 -4.8671875 39.4453125 C-4.87282715 38.56311035 -4.8784668 37.6809082 -4.88427734 36.77197266 C-5.0992676 25.2157141 -7.79198044 14.53905777 -16.2890625 6.18359375 C-26.34352873 -2.08533796 -37.47380155 -3.51380001 -50.1796875 -2.7421875 C-54.14128048 -2.22190962 -58.07163263 -1.54213205 -61.99902344 -0.80957031 C-62.72895508 -0.67389648 -63.45888672 -0.53822266 -64.2109375 -0.3984375 C-64.85611328 -0.27275391 -65.50128906 -0.14707031 -66.16601562 -0.01757812 C-68.52025592 0.30438878 -70.80593173 0.27502159 -73.1796875 0.2578125 C-73.11912297 18.39075646 -73.04160186 36.5235452 -72.94397259 54.65632725 C-72.89903418 63.07596649 -72.85961502 71.49556362 -72.83325195 79.9152832 C-72.81025602 87.25512837 -72.77684021 94.59484005 -72.73098594 101.93457931 C-72.70707515 105.81983056 -72.68833237 109.70494979 -72.68207359 113.5902729 C-72.67601297 117.25028845 -72.65597822 120.90996627 -72.62541199 124.56985664 C-72.61248088 126.54729403 -72.61419902 128.52481039 -72.6164093 130.50228882 C-72.53607421 138.11157031 -71.92477855 143.19507775 -67.6171875 149.5703125 C-63.84185014 152.1840076 -59.66486436 152.60729066 -55.1796875 153.2578125 C-55.1796875 154.2478125 -55.1796875 155.2378125 -55.1796875 156.2578125 C-72.3396875 156.2578125 -89.4996875 156.2578125 -107.1796875 156.2578125 C-107.1796875 155.2678125 -107.1796875 154.2778125 -107.1796875 153.2578125 C-106.51582031 153.15984375 -105.85195312 153.061875 -105.16796875 152.9609375 C-99.85395648 152.06104637 -96.0113222 151.32892437 -92.1796875 147.2578125 C-90.1594019 144.00603797 -89.92690425 141.48355016 -89.91899109 137.68531799 C-89.90836388 135.98404251 -89.90836388 135.98404251 -89.89752197 134.24839783 C-89.89999939 133.00828445 -89.90247681 131.76817108 -89.9050293 130.49047852 C-89.8973629 128.52655151 -89.8973629 128.52655151 -89.88954163 126.52294922 C-89.87615418 122.93409344 -89.87557265 119.34534299 -89.87810493 115.7564671 C-89.8791748 112.7594232 -89.87429085 109.76240059 -89.8694995 106.76536125 C-89.85840522 99.69438803 -89.85796647 92.62346794 -89.86401367 85.55249023 C-89.87005447 78.25996901 -89.85773967 70.96764068 -89.8364436 63.67515236 C-89.81882592 57.41176326 -89.8128265 51.14843555 -89.81608135 44.88502258 C-89.81789408 41.14517881 -89.81525915 37.40547264 -89.80136681 33.66565132 C-89.78645422 29.49515388 -89.79576 25.32504892 -89.80737305 21.15454102 C-89.79972931 19.91645187 -89.79208557 18.67836273 -89.78421021 17.40275574 C-89.79473167 15.69725052 -89.79473167 15.69725052 -89.8054657 13.95729065 C-89.80521409 12.47869237 -89.80521409 12.47869237 -89.80495739 10.97022343 C-90.25222343 7.73277531 -91.25507358 5.8817542 -93.1796875 3.2578125 C-96.46460123 1.06787002 -98.01064389 0.90503911 -101.8671875 0.6328125 C-102.86105469 0.55804688 -103.85492188 0.48328125 -104.87890625 0.40625 C-105.63816406 0.35726562 -106.39742188 0.30828125 -107.1796875 0.2578125 C-107.1796875 -0.7321875 -107.1796875 -1.7221875 -107.1796875 -2.7421875 C-104.26940659 -4.19732796 -101.18748336 -4.39322876 -97.99609375 -4.828125 C-96.91229179 -4.9805088 -96.91229179 -4.9805088 -95.80659485 -5.13597107 C-93.45226005 -5.46649711 -91.09729373 -5.79220676 -88.7421875 -6.1171875 C-85.51661235 -6.56417291 -82.29133641 -7.01322789 -79.06640625 -7.46484375 C-77.88543365 -7.63009804 -77.88543365 -7.63009804 -76.68060303 -7.7986908 C-71.83068997 -8.48539308 -67.01285806 -9.27607408 -62.19580078 -10.16625977 C-40.59714277 -14.08455679 -17.83269515 -14.25337283 0 0 Z " fill="#000000" transform="translate(233.1796875,155.7421875)"/>
<path d="M0 0 C16.5 0 33 0 50 0 C50 1.32 50 2.64 50 4 C49.34773438 4.01417969 48.69546875 4.02835938 48.0234375 4.04296875 C41.60648703 4.39315631 38.4104835 5.25873024 34 10 C31.98929307 13.22477836 31.72991369 15.77159941 31.67201233 19.54316711 C31.63970772 21.23538643 31.63970772 21.23538643 31.60675049 22.96179199 C31.58690094 24.81242249 31.58690094 24.81242249 31.56665039 26.70043945 C31.54547653 28.00341476 31.52430267 29.30639008 31.50248718 30.64884949 C31.43463632 34.97018681 31.38904389 39.29161915 31.34765625 43.61328125 C31.34041306 44.35062114 31.33316988 45.08796104 31.3257072 45.84764457 C31.25847046 52.81432453 31.20037132 59.78103395 31.16217899 66.7479372 C31.11283004 75.62828362 31.02038448 84.50581528 30.86826712 93.38501197 C30.76471761 99.64427441 30.71193828 105.90278239 30.6955089 112.16287202 C30.6843652 115.89319788 30.65186443 119.62028263 30.56437874 123.34966469 C29.62887471 142.68042244 29.62887471 142.68042244 38.35327148 159.17260742 C40.01966742 160.77629932 41.71316565 162.28393385 43.50481987 163.74565697 C45.48335197 165.40549574 47.07465656 167.30252709 48.6875 169.3125 C49.78438769 170.54816667 50.88893477 171.7770655 52 173 C52.69738281 173.77472656 53.39476562 174.54945313 54.11328125 175.34765625 C66.8639085 188.84954795 81.02408863 196.97363207 99.7734375 197.921875 C102.85061613 197.99638296 105.92206436 198.0185978 109 198 C109 199.32 109 200.64 109 202 C88.26414556 206.32211358 71.55764997 205.14374295 53 194 C49.43986942 191.55801414 46.21676597 188.87581843 43 186 C42.51740723 185.5762207 42.03481445 185.15244141 41.53759766 184.71582031 C30.45837495 174.95995891 20.39337948 164.20268653 10.76953125 153.01953125 C8.3911558 150.30513807 5.94491095 147.65427613 3.5 145 C0.46105508 141.69977216 -2.56156211 138.39050526 -5.5 135 C-8.86322638 131.12182987 -12.33335671 127.34472189 -15.80810547 123.56689453 C-20.24223628 118.74415109 -24.6251824 113.8765888 -29 109 C-30.49971128 107.33307353 -31.99971321 105.66640851 -33.5 104 C-34.23476562 103.18273437 -34.96953125 102.36546875 -35.7265625 101.5234375 C-37.3012727 99.77556329 -38.8796501 98.03098862 -40.4609375 96.2890625 C-41.25757813 95.40992188 -42.05421875 94.53078125 -42.875 93.625 C-43.59429687 92.83351563 -44.31359375 92.04203125 -45.0546875 91.2265625 C-45.69664062 90.49179688 -46.33859375 89.75703125 -47 89 C-47.60070312 88.32710938 -48.20140625 87.65421875 -48.8203125 86.9609375 C-50 85 -50 85 -49.87890625 83.140625 C-48.69906538 80.26705702 -47.35077305 77.51640681 -45.9375 74.75 C-45.38964844 73.67234375 -44.84179688 72.5946875 -44.27734375 71.484375 C-43.85582031 70.66453125 -43.43429688 69.8446875 -43 69 C-39.99125902 70.33803458 -38.01614357 71.77584376 -35.79296875 74.1953125 C-34.91862183 75.1392688 -34.91862183 75.1392688 -34.02661133 76.10229492 C-33.41970459 76.7697876 -32.81279785 77.43728027 -32.1875 78.125 C-31.243302 79.15040894 -31.243302 79.15040894 -30.2800293 80.1965332 C-26.71918631 84.07525084 -23.20416748 87.9893345 -19.76953125 91.98046875 C-17.3911558 94.69486193 -14.94491095 97.34572387 -12.5 100 C-8.89979545 103.90974355 -5.35582218 107.85866671 -1.875 111.875 C1.40852455 115.59632783 4.78855945 119.22997022 8.15625 122.875 C10.36666157 125.28390156 12.52736358 127.73268916 14.67773438 130.1953125 C15.61377502 131.26676514 15.61377502 131.26676514 16.56872559 132.35986328 C17.04104614 132.9011084 17.5133667 133.44235352 18 134 C18.0700961 118.30993783 18.12299107 102.61991796 18.15543652 86.92973804 C18.17090225 79.6444303 18.19198607 72.35921988 18.22631836 65.07397461 C18.25622982 58.72379242 18.27557714 52.37368072 18.28226548 46.02343005 C18.28617482 42.66131692 18.29535592 39.29940543 18.31719017 35.93735695 C18.33891567 32.18313179 18.34196889 28.42932657 18.34057617 24.67504883 C18.351362 23.56158585 18.36214783 22.44812286 18.3732605 21.30091858 C18.36913651 20.27593262 18.36501251 19.25094666 18.36076355 18.19490051 C18.36352893 17.30721387 18.36629431 16.41952723 18.36914349 15.50494099 C17.77961042 11.50447611 15.98958246 8.83964572 12.9375 6.25 C8.72399259 4.45701812 4.53929812 4.25561096 0 4 C0 2.68 0 1.36 0 0 Z " fill="#000000" transform="translate(289,147)"/>
<path d="M0 0 C3.4984143 0.3733064 4.55803547 1.7307606 6.9375 4.2734375 C7.72125 5.10230469 8.505 5.93117187 9.3125 6.78515625 C11.77860259 9.51242596 14.22244452 12.25281472 16.6171875 15.04296875 C19.04973517 17.8320947 21.55425436 20.55264303 24.0625 23.2734375 C27.8757996 27.41340543 31.63689371 31.59145702 35.3203125 35.84765625 C36.04361988 36.67786756 36.7839037 37.4948412 37.5625 38.2734375 C38.1254865 45.60535467 37.91107851 53.57628048 34.5625 60.2734375 C32.5625 60.2734375 32.5625 60.2734375 31.22265625 58.9453125 C30.69542969 58.31109375 30.16820312 57.676875 29.625 57.0234375 C26.51681266 53.36369291 23.31990158 49.80025242 20.0625 46.2734375 C14.36531757 40.0830806 8.81893822 33.84398527 3.5625 27.2734375 C3.2325 44.4334375 2.9025 61.5934375 2.5625 79.2734375 C-6.03342771 77.84078288 -6.03342771 77.84078288 -9.4375 74.2734375 C-10.29634196 69.73345557 -10.12959849 65.24229821 -10.03125 60.63671875 C-10.02726063 59.27394678 -10.02678719 57.9111604 -10.02966309 56.54838562 C-10.03258459 51.49810319 -9.97130119 46.44897012 -9.91168213 41.39910889 C-9.86374336 37.13470988 -9.84072705 32.87153332 -9.84968567 28.60686302 C-9.84388023 26.61881706 -9.80192993 24.63098106 -9.75915527 22.64338684 C-9.76049321 14.48824707 -10.98792464 9.45867463 -16.4375 3.2734375 C-10.96760971 1.59898129 -5.69420985 0.63877354 0 0 Z " fill="#000000" transform="translate(189.4375,153.7265625)"/>
<path d="M0 0 C4 1.33333333 8 2.66666667 12 4 C12.00879936 4.95720444 12.00879936 4.95720444 12.01777649 5.93374634 C12.08179028 12.58518984 12.16623101 19.23615309 12.26245117 25.88720703 C12.29567236 28.36826235 12.32371298 30.84939273 12.34643555 33.33056641 C12.3800322 36.90039001 12.43235283 40.46952745 12.48828125 44.0390625 C12.49467117 45.14553131 12.5010611 46.25200012 12.50764465 47.39199829 C12.61365416 52.96516946 12.75943225 57.24070395 16 62 C20.69294156 66.13425804 24.97930006 66.73241334 31 67 C31 67.99 31 68.98 31 70 C21.1 70 11.2 70 1 70 C1 68.35 1 66.7 1 65 C-0.98 65 -2.96 65 -5 65 C-4.35256836 64.12077881 -3.70513672 63.24155762 -3.03808594 62.33569336 C0.10208048 56.80146586 -0.396807 50.83058754 -0.390625 44.62890625 C-0.37408875 43.35144028 -0.35755249 42.0739743 -0.34051514 40.75779724 C-0.30029695 37.38257982 -0.27688902 34.00811384 -0.26177979 30.63275146 C-0.24213435 27.18014343 -0.20017314 23.72781201 -0.16015625 20.27539062 C-0.08631749 13.51699489 -0.03465094 6.75870417 0 0 Z " fill="#000000" transform="translate(180,242)"/>
<path d="M0 0 C14.92287918 10.50128535 14.92287918 10.50128535 20 17 C20 17.66 20 18.32 20 19 C18.12612523 19.3396019 16.25083303 19.67138691 14.375 20 C13.33085937 20.185625 12.28671875 20.37125 11.2109375 20.5625 C2.95858012 21.68690879 2.95858012 21.68690879 0.3046875 19.78515625 C-0.16710937 19.21667969 -0.63890625 18.64820313 -1.125 18.0625 C-10.58616344 7.83365444 -23.16395446 -0.35301359 -37.4296875 -1.1328125 C-42.3944096 -1.11695077 -47.10679907 -0.85099147 -52 0 C-52.33 -1.32 -52.66 -2.64 -53 -4 C-35.08205589 -10.45276444 -16.55518688 -10.17479369 0 0 Z " fill="#000000" transform="translate(160,124)"/>
</svg>
